<svg version="1.1" xmlns="http://www.w3.org/2000/svg" viewBox="0 0 263 387" width="263" height="387">
  <!-- svg-source:excalidraw -->
  
  <defs>
    <style class="style-fonts">
      @font-face {
        font-family: "Virgil";
        src: url("https://unpkg.com/@excalidraw/excalidraw@0.15.0/dist/excalidraw-assets/Virgil.woff2");
      }
      @font-face {
        font-family: "Cascadia";
        src: url("https://unpkg.com/@excalidraw/excalidraw@0.15.0/dist/excalidraw-assets/Cascadia.woff2");
      }
    </style>
  </defs>
  <g stroke-linecap="round" transform="translate(24 10) rotate(0 37 37)"><path d="M31.88 0.99 C38.74 -0.57, 49.13 0.8, 55.47 4.03 C61.81 7.25, 67.03 13.81, 69.93 20.34 C72.82 26.87, 74.04 36.06, 72.84 43.22 C71.63 50.38, 67.7 58.34, 62.67 63.3 C57.64 68.26, 49.85 71.95, 42.66 72.95 C35.46 73.95, 25.98 72.66, 19.53 69.29 C13.09 65.93, 7.28 59.22, 3.99 52.75 C0.7 46.28, -1.36 37.76, -0.21 30.5 C0.93 23.23, 4.11 14.33, 10.85 9.16 C17.58 4, 33.82 0.46, 40.2 -0.47 C46.58 -1.41, 49.2 2.71, 49.14 3.55 M54.53 3.88 C61 6.61, 65.81 12.84, 68.85 19.08 C71.88 25.31, 73.85 34.02, 72.73 41.3 C71.61 48.57, 66.87 57.36, 62.15 62.73 C57.42 68.09, 51.37 72.07, 44.37 73.48 C37.37 74.9, 26.73 74.66, 20.15 71.21 C13.56 67.77, 8.23 59.26, 4.85 52.79 C1.47 46.33, -1.21 39.31, -0.13 32.42 C0.94 25.52, 6.27 16.89, 11.31 11.42 C16.35 5.95, 22.89 0.61, 30.1 -0.42 C37.31 -1.45, 50.54 4.49, 54.59 5.24 C58.64 5.99, 55.06 3.81, 54.39 4.1" stroke="#000000" stroke-width="1" fill="none"></path></g><g transform="translate(54.27705153750401 34.33704909609776) rotate(0 6.55999755859375 12.5)"><text x="6.55999755859375" y="0" font-family="Virgil, Segoe UI Emoji" font-size="20px" fill="#000000" text-anchor="middle" style="white-space: pre;" direction="ltr" dominant-baseline="text-before-edge">A</text></g><g stroke-linecap="round" transform="translate(10 139) rotate(0 49 49)"><path d="M62.5 12.5 M62.5 12.5 C69.79 21.6, 82.03 30.88, 85.5 37.5 M62.5 12.5 C69.52 20.31, 75.74 25.66, 85.5 37.5 M85.5 37.5 C97.91 48.16, 99.14 49.96, 85.5 62.5 M85.5 37.5 C98 48.86, 98.02 51.02, 85.5 62.5 M85.5 62.5 C75.28 72.24, 68.75 78.81, 62.5 85.5 M85.5 62.5 C77.75 70.28, 69.61 77.87, 62.5 85.5 M62.5 85.5 C51.12 99.31, 50.61 99.92, 37.5 85.5 M62.5 85.5 C49.94 96.15, 50.02 96.51, 37.5 85.5 M37.5 85.5 C28.84 77.35, 22.92 73.59, 12.5 62.5 M37.5 85.5 C28.3 77.6, 19.28 68, 12.5 62.5 M12.5 62.5 C1.06 50.52, 0 48.73, 12.5 37.5 M12.5 62.5 C1.6 51.86, -0.27 50.33, 12.5 37.5 M12.5 37.5 C17.09 31.11, 22.92 24.83, 37.5 12.5 M12.5 37.5 C17.86 31.03, 24.97 25.61, 37.5 12.5 M37.5 12.5 C50.6 -1.64, 49.41 1.27, 62.5 12.5 M37.5 12.5 C51.22 1.69, 50.07 -0.14, 62.5 12.5" stroke="#000000" stroke-width="1" fill="none"></path></g><g transform="translate(51.730003356933594 175.5) rotate(0 7.269996643066406 12.5)"><text x="7.269996643066406" y="0" font-family="Virgil, Segoe UI Emoji" font-size="20px" fill="#000000" text-anchor="middle" style="white-space: pre;" direction="ltr" dominant-baseline="text-before-edge">B</text></g><g stroke-linecap="round"><g transform="translate(59 88) rotate(0 -0.09973396318036976 24.274965978460386)"><path d="M-0.84 -0.41 C-0.83 7.82, -0.49 41.98, -0.45 50.22 M0.92 -1.67 C0.87 6.1, -0.76 39.63, -1.11 48.22" stroke="#000000" stroke-width="1" fill="none"></path></g><g transform="translate(59 88) rotate(0 -0.09973396318036976 24.274965978460386)"><path d="M-9.29 25.27 C-6.17 31.06, -6.29 35.91, 0.16 49.28 M-8.34 24.44 C-5.32 33.72, -2.44 43.09, -1.72 48.17" stroke="#000000" stroke-width="1" fill="none"></path></g><g transform="translate(59 88) rotate(0 -0.09973396318036976 24.274965978460386)"><path d="M7.8 26.04 C6.58 31.51, 2.14 36.17, 0.16 49.28 M8.74 25.2 C5.38 34.19, 1.88 43.27, -1.72 48.17" stroke="#000000" stroke-width="1" fill="none"></path></g></g><mask></mask><g stroke-linecap="round" transform="translate(155 144) rotate(0 49 49)"><path d="M24.5 0 M24.5 0 C39.84 1.17, 55.43 -1.05, 73.5 0 M24.5 0 C42.63 1.24, 61.05 -0.02, 73.5 0 M73.5 0 C91.74 1.86, 99.52 9.3, 98 24.5 M73.5 0 C90.57 -0.69, 97.86 7.03, 98 24.5 M98 24.5 C96.35 42.85, 99.39 59.49, 98 73.5 M98 24.5 C97.28 38.94, 97.39 55.35, 98 73.5 M98 73.5 C96.67 90.41, 89.06 97.65, 73.5 98 M98 73.5 C99.62 89.22, 89.68 96.88, 73.5 98 M73.5 98 C57.58 97.26, 38.65 99.93, 24.5 98 M73.5 98 C63.42 97.72, 53 97.72, 24.5 98 M24.5 98 C6.39 97.23, 0.51 88.06, 0 73.5 M24.5 98 C8.9 96.29, -0.02 87.62, 0 73.5 M0 73.5 C0.37 59.78, -2.33 48.4, 0 24.5 M0 73.5 C0.45 62.54, 0.1 50.44, 0 24.5 M0 24.5 C-1.71 7.09, 6.22 1.99, 24.5 0 M0 24.5 C-0.56 9.47, 9.91 1.88, 24.5 0" stroke="#000000" stroke-width="1" fill="none"></path></g><g transform="translate(192.1100082397461 180.5) rotate(0 11.889991760253906 12.5)"><text x="11.889991760253906" y="0" font-family="Virgil, Segoe UI Emoji" font-size="20px" fill="#000000" text-anchor="middle" style="white-space: pre;" direction="ltr" dominant-baseline="text-before-edge">C.1</text></g><g stroke-linecap="round"><g transform="translate(114 188) rotate(0 19.872498193485683 -0.015232849878827892)"><path d="M0.71 0.8 C7.54 1.04, 33.8 1.06, 40.11 0.73 M-0.37 0.17 C6.46 0.14, 33.42 -0.9, 39.75 -1.01" stroke="#000000" stroke-width="1" fill="none"></path></g><g transform="translate(114 188) rotate(0 19.872498193485683 -0.015232849878827892)"><path d="M22.93 8 C27.06 3.79, 28.17 1.9, 38.86 -2.79 M20.93 6.31 C25.97 4.07, 31.4 1.53, 39.18 -1.3" stroke="#000000" stroke-width="1" fill="none"></path></g><g transform="translate(114 188) rotate(0 19.872498193485683 -0.015232849878827892)"><path d="M22.54 -5.33 C26.68 -6.46, 27.87 -5.26, 38.86 -2.79 M20.54 -7.02 C25.67 -5.67, 31.21 -4.62, 39.18 -1.3" stroke="#000000" stroke-width="1" fill="none"></path></g></g><mask></mask><g stroke-linecap="round" transform="translate(13 277) rotate(0 50 50)"><path d="M25 0 M25 0 C36.04 0.29, 46.2 -0.89, 75 0 M25 0 C38.45 0.24, 52.59 0.01, 75 0 M75 0 C93.27 -1.05, 98.58 8.49, 100 25 M75 0 C93.38 1.42, 101.3 10.11, 100 25 M100 25 C98.96 41.86, 98.59 58.66, 100 75 M100 25 C99.41 42.02, 100.44 60.5, 100 75 M100 75 C101.47 92.04, 90.16 99.7, 75 100 M100 75 C99.83 92.06, 91.81 100.77, 75 100 M75 100 C59.22 101.2, 39.48 101.95, 25 100 M75 100 C58.29 99.6, 40.4 100.53, 25 100 M25 100 C7.88 100.1, -0.19 92.36, 0 75 M25 100 C8.3 98.23, 0.83 93.36, 0 75 M0 75 C-0.59 63.05, 1.09 52.88, 0 25 M0 75 C-0.68 59.8, -0.53 45.16, 0 25 M0 25 C1.15 9.41, 10.28 -1.54, 25 0 M0 25 C-1.32 7.04, 7.13 0.86, 25 0" stroke="#000000" stroke-width="1" fill="none"></path></g><g transform="translate(46.70001220703125 314.5) rotate(0 16.29998779296875 12.5)"><text x="16.29998779296875" y="0" font-family="Virgil, Segoe UI Emoji" font-size="20px" fill="#000000" text-anchor="middle" style="white-space: pre;" direction="ltr" dominant-baseline="text-before-edge">C.2</text></g><g stroke-linecap="round"><g transform="translate(63 236) rotate(0 -1.2540364358574152 16.679438236150872)"><path d="M0.41 -0.02 C-0.08 5.74, -2.67 28.89, -2.92 34.43 M-0.83 -1.07 C-0.96 4.33, -0.6 26.67, -0.7 32.54" stroke="#000000" stroke-width="1" fill="none"></path></g><g transform="translate(63 236) rotate(0 -1.2540364358574152 16.679438236150872)"><path d="M-6.56 15.23 C-4.16 22.65, -4.07 26.4, -1.18 32.07 M-6.61 16.98 C-4.17 20.83, -3.58 25.65, -1.32 33.03" stroke="#000000" stroke-width="1" fill="none"></path></g><g transform="translate(63 236) rotate(0 -1.2540364358574152 16.679438236150872)"><path d="M5.08 15.22 C3.94 22.69, 0.47 26.44, -1.18 32.07 M5.04 16.97 C4.06 20.91, 1.24 25.73, -1.32 33.03" stroke="#000000" stroke-width="1" fill="none"></path></g></g><mask></mask><g stroke-linecap="round"><g transform="translate(206 250) rotate(0 -41.71108086669358 39.73402058742249)"><path d="M-0.67 -0.63 C-1.78 11.51, 6.41 59.36, -7.55 72.15 C-21.51 84.94, -71.63 75.29, -84.44 76.08 M1.17 1.66 C0.03 14.07, 6.08 61.22, -8.27 73.77 C-22.61 86.31, -72.31 76.21, -84.92 76.92" stroke="#000000" stroke-width="1" fill="none"></path></g><g transform="translate(206 250) rotate(0 -41.71108086669358 39.73402058742249)"><path d="M-57.12 69.43 C-62.3 71.28, -70.51 73.1, -85.03 75.87 M-55.28 69.23 C-64.66 71.9, -73.53 72.95, -84.7 76.33" stroke="#000000" stroke-width="1" fill="none"></path></g><g transform="translate(206 250) rotate(0 -41.71108086669358 39.73402058742249)"><path d="M-58.57 89.9 C-63.32 87.2, -71.2 84.44, -85.03 75.87 M-56.73 89.7 C-65.7 86.1, -74.13 80.89, -84.7 76.33" stroke="#000000" stroke-width="1" fill="none"></path></g></g><mask></mask></svg>