<svg xmlns="http://www.w3.org/2000/svg" width="500" zoomAndPan="magnify"
     viewBox="0 0 375 374.999991" height="500" preserveAspectRatio="xMidYMid meet" version="1.0">
  <defs>
    <clipPath id="c587a3f5ac">
      <path d="M 21 59.164062 L 364.066406 59.164062 L 364.066406 304.414062 L 21 304.414062 Z M 21 59.164062 " clip-rule="nonzero"/>
    </clipPath>
    <clipPath id="581c29aeb2">
      <path d="M 29 59.164062 L 364.066406 59.164062 L 364.066406 293 L 29 293 Z M 29 59.164062 " clip-rule="nonzero"/>
    </clipPath>
    <clipPath id="b26704e23a">
      <path d="M 10.816406 70 L 58 70 L 58 116 L 10.816406 116 Z M 10.816406 70 " clip-rule="nonzero"/>
    </clipPath>
    <clipPath id="2da2c62d1a">
      <path d="M 10.816406 95 L 58 95 L 58 141 L 10.816406 141 Z M 10.816406 95 " clip-rule="nonzero"/>
    </clipPath>
    <clipPath id="1084e799d6">
      <path d="M 10.816406 121 L 58 121 L 58 167 L 10.816406 167 Z M 10.816406 121 " clip-rule="nonzero"/>
    </clipPath>
    <clipPath id="a0a343f816">
      <path d="M 10.816406 146 L 58 146 L 58 192 L 10.816406 192 Z M 10.816406 146 " clip-rule="nonzero"/>
    </clipPath>
    <clipPath id="8f6d3d8f0f">
      <path d="M 10.816406 171 L 58 171 L 58 217 L 10.816406 217 Z M 10.816406 171 " clip-rule="nonzero"/>
    </clipPath>
    <clipPath id="14f36fb8a2">
      <path d="M 10.816406 196 L 58 196 L 58 242 L 10.816406 242 Z M 10.816406 196 " clip-rule="nonzero"/>
    </clipPath>
    <clipPath id="6fda0fb142">
      <path d="M 10.816406 221 L 58 221 L 58 267 L 10.816406 267 Z M 10.816406 221 " clip-rule="nonzero"/>
    </clipPath>
    <clipPath id="329d2bad0d">
      <path d="M 10.816406 246 L 58 246 L 58 292 L 10.816406 292 Z M 10.816406 246 " clip-rule="nonzero"/>
    </clipPath>
  </defs>
  <path fill="#171717"
        d="M 35.785156 302.019531 C 29.277344 302.019531 23.984375 296.726562 23.984375 290.222656 L 23.984375 85.957031 C 23.984375 75.027344 35.25 61.886719 42.324219 61.886719 L 349.566406 61.886719 C 357.933594 61.886719 361.320312 82.523438 361.320312 85.957031 L 361.320312 278.796875 C 361.320312 285.101562 347.664062 302.019531 341.074219 302.019531 L 35.785156 302.019531 "
        fill-opacity="1" fill-rule="nonzero"/>
  <g clip-path="url(#c587a3f5ac)">
    <path fill="#cccccc"
          d="M 349.566406 59.164062 L 42.324219 59.164062 C 33.820312 59.164062 21.261719 73.277344 21.261719 85.957031 L 21.261719 290.222656 C 21.261719 298.230469 27.777344 304.738281 35.785156 304.738281 L 341.074219 304.738281 C 345.1875 304.738281 350.175781 301.265625 355.894531 294.414062 C 358.9375 290.769531 364.042969 283.890625 364.042969 278.796875 L 364.042969 85.957031 C 364.042969 82.5625 362.804688 76.535156 361.105469 71.617188 C 360.039062 68.539062 356.789062 59.164062 349.566406 59.164062 Z M 349.566406 64.605469 C 354.578125 64.605469 358.601562 80.941406 358.601562 85.957031 L 358.601562 278.796875 C 358.601562 283.808594 346.085938 299.296875 341.074219 299.296875 L 35.785156 299.296875 C 30.769531 299.296875 26.707031 295.230469 26.707031 290.222656 L 26.707031 85.957031 C 26.707031 75.882812 37.3125 64.605469 42.324219 64.605469 L 349.566406 64.605469 "
          fill-opacity="1" fill-rule="nonzero"/>
  </g>
  <path fill="#171717"
        d="M 44.277344 289.75 C 37.769531 289.75 32.472656 284.457031 32.472656 277.945312 L 32.472656 73.679688 C 32.472656 67.175781 37.769531 61.886719 44.277344 61.886719 L 349.566406 61.886719 C 356.070312 61.886719 361.363281 67.175781 361.363281 73.679688 L 361.363281 277.945312 C 361.363281 284.457031 356.070312 289.75 349.566406 289.75 L 44.277344 289.75 "
        fill-opacity="1" fill-rule="nonzero"/>
  <g clip-path="url(#581c29aeb2)">
    <path fill="#cccccc"
          d="M 349.566406 59.164062 L 44.277344 59.164062 C 36.269531 59.164062 29.75 65.679688 29.75 73.679688 L 29.75 277.945312 C 29.75 285.957031 36.269531 292.472656 44.277344 292.472656 L 349.566406 292.472656 C 357.570312 292.472656 364.085938 285.957031 364.085938 277.945312 L 364.085938 73.679688 C 364.085938 65.679688 357.570312 59.164062 349.566406 59.164062 Z M 349.566406 64.605469 C 354.578125 64.605469 358.644531 68.671875 358.644531 73.679688 L 358.644531 277.945312 C 358.644531 282.964844 354.578125 287.027344 349.566406 287.027344 L 44.277344 287.027344 C 39.261719 287.027344 35.195312 282.964844 35.195312 277.945312 L 35.195312 73.679688 C 35.195312 68.671875 39.261719 64.605469 44.277344 64.605469 L 349.566406 64.605469 "
          fill-opacity="1" fill-rule="nonzero"/>
  </g>
  <path fill="#171717" d="M 38.160156 285.445312 L 29.769531 296.988281 " fill-opacity="1" fill-rule="nonzero"/>
  <path fill="#cccccc" d="M 35.957031 283.84375 L 27.566406 295.386719 L 31.96875 298.589844 L 40.363281 287.046875 " fill-opacity="1"
        fill-rule="nonzero"/>
  <path
    d="M 57.285156 86.046875 C 57.285156 82.765625 54.625 80.101562 51.34375 80.101562 C 48.058594 80.101562 45.398438 82.765625 45.398438 86.046875 C 45.398438 89.328125 48.058594 91.996094 51.34375 91.996094 C 54.625 91.996094 57.285156 89.328125 57.285156 86.046875 "
    fill-opacity="1" fill-rule="nonzero"/>
  <path fill="#cccccc"
        d="M 57.285156 86.046875 L 60.003906 86.046875 C 60.007812 83.664062 59.03125 81.480469 57.46875 79.921875 C 55.910156 78.359375 53.730469 77.378906 51.34375 77.378906 C 48.957031 77.378906 46.773438 78.359375 45.214844 79.917969 C 43.652344 81.480469 42.671875 83.664062 42.675781 86.046875 C 42.671875 88.429688 43.652344 90.617188 45.214844 92.175781 C 46.773438 93.738281 48.957031 94.714844 51.34375 94.714844 C 53.730469 94.714844 55.910156 93.738281 57.46875 92.175781 C 59.03125 90.617188 60.007812 88.429688 60.003906 86.046875 L 54.5625 86.046875 C 54.5625 86.945312 54.210938 87.734375 53.617188 88.328125 C 53.027344 88.914062 52.242188 89.273438 51.34375 89.273438 C 50.445312 89.273438 49.65625 88.914062 49.0625 88.328125 C 48.476562 87.734375 48.121094 86.945312 48.121094 86.046875 C 48.121094 85.152344 48.476562 84.363281 49.0625 83.765625 C 49.65625 83.179688 50.445312 82.828125 51.34375 82.824219 C 52.242188 82.828125 53.027344 83.179688 53.617188 83.765625 C 54.210938 84.363281 54.5625 85.152344 54.5625 86.046875 L 57.285156 86.046875 "
        fill-opacity="1" fill-rule="nonzero"/>
  <path fill="#171717"
        d="M 57.285156 110.984375 C 57.285156 107.703125 54.625 105.035156 51.34375 105.035156 C 48.058594 105.035156 45.398438 107.703125 45.398438 110.984375 C 45.398438 114.261719 48.058594 116.929688 51.34375 116.929688 C 54.625 116.929688 57.285156 114.261719 57.285156 110.984375 "
        fill-opacity="1" fill-rule="nonzero"/>
  <path fill="#cccccc"
        d="M 57.285156 110.984375 L 60.003906 110.984375 C 60.007812 108.597656 59.03125 106.417969 57.46875 104.855469 C 55.910156 103.292969 53.730469 102.316406 51.34375 102.316406 C 48.957031 102.316406 46.773438 103.292969 45.214844 104.855469 C 43.652344 106.417969 42.671875 108.597656 42.675781 110.984375 C 42.671875 113.371094 43.652344 115.550781 45.214844 117.113281 C 46.773438 118.675781 48.957031 119.652344 51.34375 119.652344 C 53.730469 119.652344 55.910156 118.671875 57.46875 117.113281 C 59.03125 115.550781 60.007812 113.371094 60.003906 110.984375 L 54.5625 110.984375 C 54.5625 111.882812 54.210938 112.667969 53.617188 113.265625 C 53.027344 113.851562 52.242188 114.203125 51.34375 114.207031 C 50.445312 114.203125 49.65625 113.851562 49.0625 113.265625 C 48.476562 112.667969 48.121094 111.882812 48.121094 110.984375 C 48.121094 110.082031 48.476562 109.296875 49.0625 108.707031 C 49.65625 108.113281 50.445312 107.761719 51.34375 107.757812 C 52.242188 107.761719 53.027344 108.113281 53.617188 108.707031 C 54.210938 109.296875 54.5625 110.082031 54.5625 110.984375 L 57.285156 110.984375 "
        fill-opacity="1" fill-rule="nonzero"/>
  <path fill="#171717"
        d="M 57.285156 135.914062 C 57.285156 132.628906 54.625 129.964844 51.34375 129.964844 C 48.058594 129.964844 45.398438 132.628906 45.398438 135.914062 C 45.398438 139.199219 48.058594 141.859375 51.34375 141.859375 C 54.625 141.859375 57.285156 139.199219 57.285156 135.914062 "
        fill-opacity="1" fill-rule="nonzero"/>
  <path fill="#cccccc"
        d="M 57.285156 135.914062 L 60.003906 135.914062 C 60.007812 133.53125 59.035156 131.34375 57.46875 129.785156 C 55.910156 128.21875 53.730469 127.246094 51.34375 127.246094 C 48.957031 127.246094 46.773438 128.21875 45.214844 129.785156 C 43.652344 131.34375 42.671875 133.53125 42.675781 135.914062 C 42.671875 138.296875 43.652344 140.480469 45.214844 142.042969 C 46.773438 143.605469 48.957031 144.585938 51.34375 144.582031 C 53.730469 144.585938 55.910156 143.605469 57.46875 142.042969 C 59.03125 140.480469 60.007812 138.296875 60.003906 135.914062 L 54.5625 135.914062 C 54.5625 136.8125 54.210938 137.601562 53.617188 138.195312 C 53.027344 138.785156 52.242188 139.136719 51.34375 139.136719 C 50.445312 139.136719 49.65625 138.78125 49.0625 138.195312 C 48.476562 137.601562 48.121094 136.8125 48.121094 135.914062 C 48.121094 135.015625 48.476562 134.222656 49.0625 133.632812 C 49.65625 133.046875 50.445312 132.6875 51.34375 132.6875 C 52.242188 132.6875 53.027344 133.046875 53.617188 133.632812 C 54.210938 134.222656 54.5625 135.015625 54.5625 135.914062 L 57.285156 135.914062 "
        fill-opacity="1" fill-rule="nonzero"/>
  <path
    d="M 57.285156 160.84375 C 57.285156 157.5625 54.625 154.902344 51.34375 154.902344 C 48.058594 154.902344 45.398438 157.5625 45.398438 160.84375 C 45.398438 164.128906 48.058594 166.789062 51.34375 166.789062 C 54.625 166.789062 57.285156 164.128906 57.285156 160.84375 "
    fill-opacity="1" fill-rule="nonzero"/>
  <path fill="#cccccc"
        d="M 57.285156 160.84375 L 60.003906 160.84375 C 60.007812 158.460938 59.03125 156.277344 57.46875 154.71875 C 55.910156 153.152344 53.730469 152.175781 51.34375 152.179688 C 48.957031 152.175781 46.773438 153.152344 45.214844 154.71875 C 43.652344 156.277344 42.671875 158.460938 42.675781 160.84375 C 42.671875 163.230469 43.652344 165.414062 45.214844 166.972656 C 46.773438 168.539062 48.957031 169.515625 51.34375 169.511719 C 53.730469 169.515625 55.910156 168.539062 57.46875 166.972656 C 59.03125 165.414062 60.007812 163.230469 60.003906 160.84375 L 54.5625 160.84375 C 54.5625 161.742188 54.210938 162.535156 53.617188 163.125 C 53.027344 163.714844 52.242188 164.070312 51.34375 164.070312 C 50.445312 164.070312 49.65625 163.714844 49.0625 163.125 C 48.476562 162.535156 48.121094 161.742188 48.121094 160.84375 C 48.121094 159.949219 48.476562 159.15625 49.0625 158.566406 C 49.65625 157.980469 50.445312 157.621094 51.34375 157.621094 C 52.242188 157.621094 53.027344 157.980469 53.617188 158.566406 C 54.210938 159.15625 54.5625 159.949219 54.5625 160.84375 L 57.285156 160.84375 "
        fill-opacity="1" fill-rule="nonzero"/>
  <path fill="#171717"
        d="M 57.285156 185.78125 C 57.285156 182.496094 54.625 179.835938 51.34375 179.835938 C 48.058594 179.835938 45.398438 182.496094 45.398438 185.78125 C 45.398438 189.0625 48.058594 191.726562 51.34375 191.726562 C 54.625 191.726562 57.285156 189.0625 57.285156 185.78125 "
        fill-opacity="1" fill-rule="nonzero"/>
  <path fill="#cccccc"
        d="M 57.285156 185.78125 L 60.003906 185.78125 C 60.007812 183.398438 59.03125 181.214844 57.46875 179.652344 C 55.910156 178.089844 53.730469 177.113281 51.34375 177.113281 C 48.957031 177.109375 46.773438 178.089844 45.214844 179.652344 C 43.652344 181.214844 42.671875 183.398438 42.675781 185.78125 C 42.671875 188.164062 43.652344 190.351562 45.214844 191.90625 C 46.777344 193.472656 48.957031 194.445312 51.34375 194.445312 C 53.722656 194.445312 55.910156 193.472656 57.46875 191.90625 C 59.03125 190.351562 60.007812 188.164062 60.003906 185.78125 L 54.5625 185.78125 C 54.5625 186.683594 54.210938 187.46875 53.621094 188.058594 C 53.027344 188.644531 52.242188 189 51.34375 189.003906 C 50.441406 189 49.65625 188.644531 49.0625 188.058594 C 48.476562 187.46875 48.121094 186.683594 48.121094 185.78125 C 48.121094 184.882812 48.476562 184.09375 49.0625 183.5 C 49.65625 182.914062 50.445312 182.558594 51.34375 182.558594 C 52.242188 182.558594 53.027344 182.914062 53.617188 183.5 C 54.210938 184.09375 54.5625 184.882812 54.5625 185.78125 L 57.285156 185.78125 "
        fill-opacity="1" fill-rule="nonzero"/>
  <path fill="#171717"
        d="M 57.285156 210.710938 C 57.285156 207.429688 54.625 204.761719 51.34375 204.761719 C 48.058594 204.761719 45.398438 207.429688 45.398438 210.710938 C 45.398438 213.992188 48.058594 216.660156 51.34375 216.660156 C 54.625 216.660156 57.285156 213.992188 57.285156 210.710938 "
        fill-opacity="1" fill-rule="nonzero"/>
  <path fill="#cccccc"
        d="M 57.285156 210.710938 L 60.003906 210.710938 C 60.007812 208.324219 59.03125 206.144531 57.46875 204.582031 C 55.910156 203.019531 53.730469 202.039062 51.34375 202.039062 C 48.957031 202.039062 46.773438 203.019531 45.214844 204.582031 C 43.652344 206.144531 42.671875 208.324219 42.675781 210.710938 C 42.671875 213.097656 43.652344 215.28125 45.214844 216.84375 C 46.773438 218.40625 48.957031 219.382812 51.34375 219.382812 C 53.730469 219.382812 55.910156 218.40625 57.46875 216.839844 C 59.03125 215.28125 60.007812 213.097656 60.003906 210.710938 L 54.5625 210.710938 C 54.5625 211.613281 54.210938 212.398438 53.617188 212.996094 C 53.027344 213.582031 52.242188 213.9375 51.34375 213.9375 C 50.445312 213.9375 49.65625 213.582031 49.0625 212.996094 C 48.476562 212.398438 48.121094 211.613281 48.121094 210.710938 C 48.121094 209.8125 48.476562 209.023438 49.0625 208.433594 C 49.65625 207.839844 50.445312 207.488281 51.34375 207.484375 C 52.242188 207.488281 53.027344 207.839844 53.617188 208.433594 C 54.210938 209.023438 54.5625 209.8125 54.5625 210.710938 L 57.285156 210.710938 "
        fill-opacity="1" fill-rule="nonzero"/>
  <path fill="#171717"
        d="M 57.285156 235.644531 C 57.285156 232.363281 54.625 229.699219 51.34375 229.699219 C 48.058594 229.699219 45.398438 232.363281 45.398438 235.644531 C 45.398438 238.929688 48.058594 241.589844 51.34375 241.589844 C 54.625 241.589844 57.285156 238.929688 57.285156 235.644531 "
        fill-opacity="1" fill-rule="nonzero"/>
  <path fill="#cccccc"
        d="M 57.285156 235.644531 L 60.003906 235.644531 C 60.007812 233.261719 59.03125 231.078125 57.46875 229.519531 C 55.910156 227.953125 53.722656 226.980469 51.34375 226.980469 C 48.957031 226.980469 46.777344 227.953125 45.214844 229.519531 C 43.652344 231.078125 42.671875 233.261719 42.675781 235.644531 C 42.671875 238.03125 43.652344 240.210938 45.214844 241.773438 C 46.777344 243.335938 48.957031 244.3125 51.34375 244.3125 C 53.722656 244.3125 55.910156 243.335938 57.46875 241.773438 C 59.03125 240.210938 60.007812 238.03125 60.003906 235.644531 L 54.5625 235.644531 C 54.5625 236.546875 54.210938 237.332031 53.617188 237.925781 C 53.027344 238.511719 52.242188 238.867188 51.34375 238.867188 C 50.441406 238.867188 49.65625 238.511719 49.0625 237.925781 C 48.476562 237.332031 48.121094 236.546875 48.121094 235.644531 C 48.121094 234.75 48.476562 233.957031 49.0625 233.367188 C 49.65625 232.78125 50.441406 232.425781 51.34375 232.421875 C 52.242188 232.425781 53.027344 232.78125 53.621094 233.367188 C 54.210938 233.957031 54.5625 234.75 54.5625 235.644531 L 57.285156 235.644531 "
        fill-opacity="1" fill-rule="nonzero"/>
  <path fill="#171717"
        d="M 57.285156 260.582031 C 57.285156 257.292969 54.625 254.632812 51.34375 254.632812 C 48.058594 254.632812 45.398438 257.292969 45.398438 260.582031 C 45.398438 263.863281 48.058594 266.519531 51.34375 266.519531 C 54.625 266.519531 57.285156 263.863281 57.285156 260.582031 "
        fill-opacity="1" fill-rule="nonzero"/>
  <path fill="#cccccc"
        d="M 57.285156 260.582031 L 60.003906 260.582031 C 60.007812 258.195312 59.03125 256.007812 57.46875 254.449219 C 55.910156 252.882812 53.730469 251.90625 51.34375 251.910156 C 48.957031 251.90625 46.773438 252.882812 45.214844 254.449219 C 43.652344 256.007812 42.671875 258.195312 42.675781 260.582031 C 42.671875 262.964844 43.652344 265.148438 45.214844 266.707031 C 46.777344 268.269531 48.957031 269.246094 51.34375 269.242188 C 53.722656 269.246094 55.910156 268.269531 57.46875 266.707031 C 59.03125 265.148438 60.007812 262.964844 60.003906 260.582031 L 54.5625 260.582031 C 54.5625 261.476562 54.210938 262.265625 53.621094 262.859375 C 53.027344 263.445312 52.242188 263.800781 51.34375 263.800781 C 50.441406 263.800781 49.65625 263.445312 49.0625 262.859375 C 48.476562 262.265625 48.121094 261.476562 48.121094 260.582031 C 48.121094 259.679688 48.476562 258.886719 49.0625 258.296875 C 49.65625 257.710938 50.445312 257.351562 51.34375 257.351562 C 52.242188 257.351562 53.027344 257.710938 53.617188 258.296875 C 54.210938 258.886719 54.5625 259.679688 54.5625 260.582031 L 57.285156 260.582031 "
        fill-opacity="1" fill-rule="nonzero"/>
  <path fill="#171717"
        d="M 26.964844 110.066406 C 20.875 107.316406 16.585938 101.261719 16.585938 94.148438 C 16.585938 84.476562 24.457031 76.601562 34.132812 76.601562 C 42.703125 76.601562 49.800781 82.792969 51.324219 90.921875 C 51.578125 90.914062 51.816406 90.890625 52.070312 90.890625 C 52.898438 90.890625 53.6875 90.949219 54.476562 91.007812 C 52.945312 81.132812 44.429688 73.535156 34.132812 73.535156 C 22.769531 73.535156 13.519531 82.785156 13.519531 94.148438 C 13.519531 102.738281 18.84375 110.039062 26.332031 113.132812 C 26.488281 112.097656 26.703125 111.074219 26.964844 110.066406 "
        fill-opacity="1" fill-rule="nonzero"/>
  <g clip-path="url(#b26704e23a)">
    <path fill="#cccccc"
          d="M 26.964844 110.066406 L 28.089844 107.585938 C 25.507812 106.421875 23.304688 104.550781 21.757812 102.230469 C 20.207031 99.90625 19.308594 97.15625 19.308594 94.148438 C 19.308594 90.058594 20.964844 86.367188 23.65625 83.671875 C 26.347656 80.980469 30.039062 79.328125 34.132812 79.324219 C 37.757812 79.328125 41.042969 80.625 43.617188 82.792969 C 46.183594 84.964844 48.007812 87.992188 48.652344 91.425781 C 48.902344 92.75 50.070312 93.691406 51.417969 93.644531 C 51.816406 93.628906 52.019531 93.605469 52.070312 93.609375 C 52.769531 93.609375 53.480469 93.660156 54.273438 93.722656 C 55.09375 93.785156 55.914062 93.460938 56.476562 92.859375 C 57.035156 92.25 57.292969 91.40625 57.164062 90.589844 C 56.300781 85 53.457031 80.058594 49.378906 76.511719 C 45.300781 72.96875 39.957031 70.8125 34.132812 70.8125 C 27.707031 70.8125 21.855469 73.433594 17.640625 77.65625 C 13.417969 81.871094 10.792969 87.722656 10.796875 94.148438 C 10.792969 99.011719 12.308594 103.53125 14.875 107.246094 C 17.445312 110.96875 21.0625 113.898438 25.292969 115.644531 C 26.0625 115.964844 26.945312 115.914062 27.671875 115.5 C 28.398438 115.089844 28.894531 114.363281 29.023438 113.539062 C 29.164062 112.605469 29.359375 111.679688 29.597656 110.757812 C 29.9375 109.472656 29.300781 108.136719 28.089844 107.585938 L 26.964844 110.066406 L 24.335938 109.378906 C 24.046875 110.472656 23.816406 111.589844 23.640625 112.722656 L 26.332031 113.132812 L 27.371094 110.613281 C 24.117188 109.269531 21.324219 107.007812 19.359375 104.15625 C 17.390625 101.300781 16.242188 97.878906 16.242188 94.148438 C 16.242188 89.214844 18.238281 84.757812 21.488281 81.503906 C 24.738281 78.261719 29.199219 76.257812 34.132812 76.257812 C 38.609375 76.257812 42.667969 77.898438 45.808594 80.625 C 48.945312 83.351562 51.125 87.144531 51.785156 91.425781 L 54.476562 91.007812 L 54.679688 88.296875 C 53.894531 88.234375 53.03125 88.167969 52.070312 88.167969 C 51.617188 88.171875 51.339844 88.207031 51.238281 88.207031 L 51.324219 90.921875 L 54 90.421875 C 53.121094 85.726562 50.628906 81.59375 47.128906 78.632812 C 43.625 75.675781 39.078125 73.878906 34.132812 73.878906 C 28.550781 73.878906 23.464844 76.160156 19.804688 79.824219 C 16.144531 83.484375 13.863281 88.566406 13.863281 94.148438 C 13.863281 98.257812 15.109375 102.085938 17.226562 105.253906 C 19.351562 108.429688 22.339844 110.960938 25.847656 112.550781 L 26.964844 110.066406 L 24.335938 109.378906 L 26.964844 110.066406 "
          fill-opacity="1" fill-rule="nonzero"/>
  </g>
  <path fill="#171717"
        d="M 26.964844 135.21875 C 20.875 132.460938 16.585938 126.410156 16.585938 119.300781 C 16.585938 109.628906 24.457031 101.753906 34.132812 101.753906 C 42.703125 101.753906 49.800781 107.941406 51.324219 116.074219 C 51.578125 116.070312 51.816406 116.039062 52.070312 116.039062 C 52.898438 116.039062 53.6875 116.101562 54.476562 116.160156 C 52.945312 106.28125 44.429688 98.6875 34.132812 98.6875 C 22.769531 98.6875 13.519531 107.9375 13.519531 119.300781 C 13.519531 127.890625 18.84375 135.191406 26.332031 138.28125 C 26.488281 137.246094 26.703125 136.226562 26.964844 135.21875 "
        fill-opacity="1" fill-rule="nonzero"/>
  <g clip-path="url(#2da2c62d1a)">
    <path fill="#cccccc"
          d="M 26.964844 135.21875 L 28.089844 132.738281 C 25.507812 131.574219 23.304688 129.703125 21.757812 127.382812 C 20.207031 125.058594 19.308594 122.308594 19.308594 119.300781 C 19.308594 115.210938 20.964844 111.519531 23.65625 108.824219 C 26.347656 106.132812 30.042969 104.476562 34.132812 104.476562 C 37.757812 104.476562 41.042969 105.777344 43.617188 107.945312 C 46.183594 110.113281 48.007812 113.140625 48.652344 116.582031 C 48.898438 117.886719 50.042969 118.820312 51.371094 118.796875 C 51.828125 118.78125 52.050781 118.757812 52.070312 118.761719 C 52.769531 118.761719 53.480469 118.8125 54.273438 118.871094 C 55.09375 118.9375 55.914062 118.613281 56.476562 118.003906 C 57.035156 117.402344 57.292969 116.558594 57.164062 115.742188 C 56.300781 110.152344 53.457031 105.207031 49.378906 101.664062 C 45.300781 98.121094 39.957031 95.964844 34.132812 95.964844 C 27.707031 95.964844 21.855469 98.589844 17.640625 102.808594 C 13.417969 107.027344 10.792969 112.871094 10.796875 119.300781 C 10.792969 124.164062 12.308594 128.683594 14.875 132.398438 C 17.445312 136.121094 21.0625 139.050781 25.292969 140.792969 C 26.066406 141.117188 26.945312 141.058594 27.671875 140.648438 C 28.398438 140.234375 28.894531 139.515625 29.023438 138.6875 C 29.164062 137.757812 29.359375 136.828125 29.597656 135.910156 C 29.9375 134.621094 29.300781 133.289062 28.089844 132.738281 L 26.964844 135.21875 L 24.335938 134.523438 C 24.046875 135.621094 23.816406 136.738281 23.640625 137.867188 L 26.332031 138.28125 L 27.371094 135.761719 C 24.113281 134.421875 21.324219 132.15625 19.359375 129.308594 C 17.390625 126.453125 16.242188 123.03125 16.242188 119.300781 C 16.242188 114.363281 18.238281 109.910156 21.488281 106.65625 C 24.738281 103.410156 29.199219 101.410156 34.132812 101.410156 C 38.609375 101.410156 42.667969 103.050781 45.808594 105.777344 C 48.945312 108.496094 51.125 112.289062 51.785156 116.578125 L 54.476562 116.160156 L 54.679688 113.445312 C 53.894531 113.386719 53.03125 113.320312 52.070312 113.320312 C 51.585938 113.324219 51.324219 113.363281 51.28125 113.355469 L 51.324219 116.074219 L 54 115.574219 C 53.121094 110.875 50.628906 106.746094 47.128906 103.785156 C 43.625 100.828125 39.078125 99.03125 34.132812 99.03125 C 28.550781 99.03125 23.464844 101.3125 19.804688 104.976562 C 16.144531 108.636719 13.863281 113.71875 13.863281 119.300781 C 13.863281 123.410156 15.109375 127.238281 17.226562 130.40625 C 19.351562 133.578125 22.339844 136.109375 25.847656 137.695312 L 26.964844 135.21875 L 24.335938 134.523438 L 26.964844 135.21875 "
          fill-opacity="1" fill-rule="nonzero"/>
  </g>
  <path fill="#171717"
        d="M 26.964844 160.371094 C 20.875 157.613281 16.585938 151.5625 16.585938 144.453125 C 16.585938 134.78125 24.457031 126.910156 34.132812 126.910156 C 42.703125 126.910156 49.800781 133.097656 51.324219 141.230469 C 51.578125 141.222656 51.816406 141.191406 52.070312 141.191406 C 52.898438 141.191406 53.6875 141.246094 54.476562 141.3125 C 52.945312 131.4375 44.429688 123.84375 34.132812 123.84375 C 22.769531 123.84375 13.519531 133.085938 13.519531 144.453125 C 13.519531 153.046875 18.84375 160.347656 26.332031 163.429688 C 26.488281 162.402344 26.703125 161.378906 26.964844 160.371094 "
        fill-opacity="1" fill-rule="nonzero"/>
  <g clip-path="url(#1084e799d6)">
    <path fill="#cccccc"
          d="M 26.964844 160.371094 L 28.089844 157.890625 C 25.507812 156.726562 23.304688 154.851562 21.757812 152.53125 C 20.207031 150.210938 19.308594 147.460938 19.308594 144.453125 C 19.308594 140.363281 20.964844 136.671875 23.65625 133.976562 C 26.347656 131.289062 30.039062 129.628906 34.132812 129.628906 C 37.757812 129.628906 41.042969 130.929688 43.617188 133.101562 C 46.183594 135.269531 48.007812 138.296875 48.652344 141.730469 C 48.902344 143.054688 50.070312 143.996094 51.417969 143.949219 C 51.816406 143.933594 52.019531 143.914062 52.070312 143.914062 C 52.777344 143.914062 53.484375 143.964844 54.257812 144.023438 C 55.089844 144.09375 55.902344 143.777344 56.46875 143.164062 C 57.035156 142.554688 57.292969 141.722656 57.164062 140.898438 C 56.300781 135.304688 53.457031 130.363281 49.378906 126.820312 C 45.300781 123.277344 39.957031 121.121094 34.132812 121.121094 C 27.707031 121.121094 21.855469 123.746094 17.640625 127.964844 C 13.417969 132.175781 10.792969 138.023438 10.796875 144.453125 C 10.792969 149.316406 12.308594 153.839844 14.875 157.554688 C 17.445312 161.273438 21.0625 164.203125 25.292969 165.949219 C 26.066406 166.265625 26.945312 166.210938 27.671875 165.804688 C 28.398438 165.390625 28.894531 164.667969 29.023438 163.84375 C 29.164062 162.914062 29.359375 161.976562 29.597656 161.0625 C 29.9375 159.777344 29.300781 158.4375 28.089844 157.890625 L 26.964844 160.371094 L 24.335938 159.675781 C 24.046875 160.777344 23.816406 161.894531 23.640625 163.023438 L 26.332031 163.429688 L 27.371094 160.917969 C 24.113281 159.578125 21.324219 157.3125 19.359375 154.464844 C 17.390625 151.609375 16.242188 148.1875 16.242188 144.453125 C 16.242188 139.515625 18.238281 135.058594 21.488281 131.8125 C 24.738281 128.566406 29.199219 126.566406 34.132812 126.566406 C 38.609375 126.566406 42.667969 128.207031 45.808594 130.929688 C 48.945312 133.652344 51.125 137.445312 51.785156 141.726562 L 54.476562 141.3125 L 54.695312 138.597656 C 53.890625 138.535156 53.023438 138.472656 52.070312 138.472656 C 51.617188 138.476562 51.339844 138.507812 51.234375 138.507812 L 51.324219 141.230469 L 54 140.730469 C 53.121094 136.03125 50.628906 131.898438 47.128906 128.9375 C 43.625 125.980469 39.078125 124.183594 34.132812 124.1875 C 28.550781 124.1875 23.464844 126.46875 19.804688 130.128906 C 16.144531 133.789062 13.863281 138.871094 13.863281 144.453125 C 13.863281 148.5625 15.109375 152.382812 17.226562 155.554688 C 19.351562 158.726562 22.339844 161.261719 25.847656 162.851562 L 26.964844 160.371094 L 24.335938 159.675781 L 26.964844 160.371094 "
          fill-opacity="1" fill-rule="nonzero"/>
  </g>
  <path fill="#171717"
        d="M 26.964844 185.523438 C 20.875 182.765625 16.585938 176.710938 16.585938 169.609375 C 16.585938 159.925781 24.457031 152.0625 34.132812 152.0625 C 42.703125 152.0625 49.800781 158.246094 51.324219 166.382812 C 51.578125 166.375 51.816406 166.34375 52.070312 166.34375 C 52.898438 166.34375 53.6875 166.402344 54.476562 166.460938 C 52.945312 156.589844 44.429688 148.988281 34.132812 148.988281 C 22.769531 148.988281 13.519531 158.238281 13.519531 169.609375 C 13.519531 178.195312 18.84375 185.496094 26.332031 188.582031 C 26.488281 187.550781 26.703125 186.53125 26.964844 185.523438 "
        fill-opacity="1" fill-rule="nonzero"/>
  <g clip-path="url(#a0a343f816)">
    <path fill="#cccccc"
          d="M 26.964844 185.523438 L 28.09375 183.046875 C 25.507812 181.875 23.304688 180.007812 21.757812 177.683594 C 20.207031 175.363281 19.308594 172.613281 19.308594 169.609375 C 19.308594 165.515625 20.964844 161.824219 23.65625 159.128906 C 26.347656 156.4375 30.039062 154.78125 34.132812 154.78125 C 37.757812 154.78125 41.042969 156.082031 43.617188 158.246094 C 46.183594 160.417969 48.007812 163.449219 48.652344 166.882812 C 48.902344 168.207031 50.070312 169.144531 51.417969 169.101562 C 51.816406 169.082031 52.019531 169.066406 52.070312 169.066406 C 52.769531 169.066406 53.480469 169.117188 54.273438 169.175781 C 55.09375 169.238281 55.914062 168.921875 56.476562 168.3125 C 57.035156 167.703125 57.292969 166.863281 57.164062 166.046875 C 56.300781 160.457031 53.457031 155.511719 49.378906 151.972656 C 45.300781 148.425781 39.957031 146.265625 34.132812 146.265625 C 27.707031 146.265625 21.855469 148.886719 17.640625 153.109375 C 13.417969 157.328125 10.792969 163.179688 10.796875 169.609375 C 10.792969 174.46875 12.308594 178.988281 14.875 182.707031 C 17.445312 186.421875 21.0625 189.351562 25.292969 191.101562 C 26.066406 191.417969 26.945312 191.363281 27.671875 190.949219 C 28.398438 190.542969 28.894531 189.820312 29.023438 188.996094 C 29.164062 188.058594 29.359375 187.136719 29.597656 186.214844 C 29.9375 184.929688 29.304688 183.59375 28.09375 183.046875 L 26.964844 185.523438 L 24.335938 184.832031 C 24.046875 185.929688 23.816406 187.042969 23.640625 188.175781 L 26.332031 188.582031 L 27.371094 186.070312 C 24.113281 184.726562 21.324219 182.464844 19.359375 179.609375 C 17.390625 176.757812 16.242188 173.339844 16.242188 169.609375 C 16.242188 164.667969 18.238281 160.210938 21.488281 156.960938 C 24.738281 153.710938 29.199219 151.710938 34.132812 151.707031 C 38.609375 151.710938 42.667969 153.351562 45.808594 156.078125 C 48.945312 158.804688 51.125 162.597656 51.785156 166.878906 L 54.476562 166.460938 L 54.679688 163.75 C 53.894531 163.691406 53.03125 163.621094 52.070312 163.621094 C 51.617188 163.625 51.339844 163.660156 51.234375 163.660156 L 51.324219 166.382812 L 54 165.878906 C 53.121094 161.179688 50.628906 157.046875 47.128906 154.09375 C 43.625 151.128906 39.078125 149.335938 34.132812 149.339844 C 28.550781 149.339844 23.464844 151.613281 19.804688 155.28125 C 16.144531 158.941406 13.863281 164.023438 13.863281 169.609375 C 13.863281 173.710938 15.109375 177.539062 17.226562 180.707031 C 19.351562 183.878906 22.339844 186.414062 25.847656 188.003906 L 26.964844 185.523438 L 24.335938 184.832031 L 26.964844 185.523438 "
          fill-opacity="1" fill-rule="nonzero"/>
  </g>
  <path fill="#171717"
        d="M 26.964844 210.675781 C 20.875 207.921875 16.585938 201.867188 16.585938 194.761719 C 16.585938 185.082031 24.457031 177.210938 34.132812 177.210938 C 42.703125 177.210938 49.800781 183.402344 51.324219 191.535156 C 51.578125 191.53125 51.816406 191.5 52.070312 191.5 C 52.898438 191.5 53.6875 191.554688 54.476562 191.613281 C 52.945312 181.742188 44.429688 174.140625 34.132812 174.140625 C 22.769531 174.140625 13.519531 183.394531 13.519531 194.761719 C 13.519531 203.351562 18.84375 210.648438 26.332031 213.734375 C 26.488281 212.707031 26.703125 211.679688 26.964844 210.675781 "
        fill-opacity="1" fill-rule="nonzero"/>
  <g clip-path="url(#8f6d3d8f0f)">
    <path fill="#cccccc"
          d="M 26.964844 210.675781 L 28.089844 208.199219 C 25.507812 207.027344 23.304688 205.15625 21.757812 202.839844 C 20.207031 200.519531 19.308594 197.761719 19.308594 194.761719 C 19.308594 190.667969 20.964844 186.976562 23.65625 184.285156 C 26.347656 181.59375 30.039062 179.9375 34.132812 179.933594 C 37.757812 179.9375 41.042969 181.234375 43.617188 183.402344 C 46.183594 185.570312 48.007812 188.605469 48.652344 192.035156 C 48.898438 193.351562 50.058594 194.289062 51.398438 194.253906 C 51.804688 194.242188 52.019531 194.214844 52.070312 194.222656 C 52.777344 194.222656 53.496094 194.273438 54.277344 194.328125 C 55.101562 194.386719 55.914062 194.066406 56.476562 193.460938 C 57.035156 192.851562 57.292969 192.015625 57.164062 191.199219 C 56.300781 185.605469 53.457031 180.664062 49.378906 177.121094 C 45.300781 173.578125 39.957031 171.421875 34.132812 171.421875 C 27.707031 171.421875 21.855469 174.042969 17.640625 178.265625 C 13.417969 182.480469 10.792969 188.332031 10.796875 194.761719 C 10.792969 199.621094 12.308594 204.140625 14.875 207.859375 C 17.445312 211.578125 21.0625 214.507812 25.292969 216.25 C 26.066406 216.570312 26.945312 216.515625 27.671875 216.105469 C 28.398438 215.695312 28.894531 214.972656 29.023438 214.148438 C 29.164062 213.210938 29.359375 212.285156 29.597656 211.371094 C 29.9375 210.082031 29.300781 208.746094 28.089844 208.199219 L 26.964844 210.675781 L 24.335938 209.984375 C 24.046875 211.082031 23.816406 212.195312 23.640625 213.324219 L 26.332031 213.734375 L 27.371094 211.222656 C 24.113281 209.878906 21.324219 207.617188 19.359375 204.765625 C 17.390625 201.914062 16.242188 198.488281 16.242188 194.761719 C 16.242188 189.824219 18.238281 185.363281 21.488281 182.113281 C 24.738281 178.867188 29.199219 176.867188 34.132812 176.863281 C 38.609375 176.867188 42.667969 178.507812 45.808594 181.230469 C 48.945312 183.957031 51.125 187.75 51.785156 192.03125 L 54.476562 191.613281 L 54.671875 188.902344 C 53.882812 188.84375 53.023438 188.777344 52.070312 188.777344 C 51.617188 188.78125 51.347656 188.816406 51.257812 188.816406 L 51.324219 191.535156 L 54 191.03125 C 53.121094 186.335938 50.628906 182.203125 47.128906 179.246094 C 43.625 176.285156 39.078125 174.492188 34.132812 174.492188 C 28.550781 174.492188 23.464844 176.769531 19.804688 180.429688 C 16.144531 184.09375 13.863281 189.171875 13.863281 194.761719 C 13.863281 198.863281 15.109375 202.691406 17.226562 205.863281 C 19.351562 209.035156 22.339844 211.570312 25.847656 213.15625 L 26.964844 210.675781 L 24.335938 209.984375 L 26.964844 210.675781 "
          fill-opacity="1" fill-rule="nonzero"/>
  </g>
  <path fill="#171717"
        d="M 26.964844 235.828125 C 20.875 233.074219 16.585938 227.019531 16.585938 219.910156 C 16.585938 210.234375 24.457031 202.359375 34.132812 202.359375 C 42.703125 202.359375 49.800781 208.550781 51.324219 216.679688 C 51.578125 216.675781 51.816406 216.648438 52.070312 216.648438 C 52.898438 216.648438 53.6875 216.707031 54.476562 216.769531 C 52.945312 206.890625 44.429688 199.292969 34.132812 199.292969 C 22.769531 199.292969 13.519531 208.542969 13.519531 219.910156 C 13.519531 228.496094 18.84375 235.796875 26.332031 238.890625 C 26.488281 237.855469 26.703125 236.832031 26.964844 235.828125 "
        fill-opacity="1" fill-rule="nonzero"/>
  <g clip-path="url(#14f36fb8a2)">
    <path fill="#cccccc"
          d="M 26.964844 235.828125 L 28.089844 233.347656 C 25.507812 232.179688 23.304688 230.308594 21.757812 227.992188 C 20.207031 225.671875 19.308594 222.914062 19.308594 219.910156 C 19.308594 215.816406 20.964844 212.125 23.65625 209.429688 C 26.347656 206.738281 30.039062 205.085938 34.132812 205.082031 C 37.757812 205.085938 41.042969 206.386719 43.617188 208.550781 C 46.183594 210.71875 48.007812 213.75 48.652344 217.1875 C 48.898438 218.492188 50.042969 219.429688 51.371094 219.402344 C 51.828125 219.390625 52.050781 219.363281 52.070312 219.367188 C 52.769531 219.367188 53.476562 219.417969 54.257812 219.484375 C 55.089844 219.550781 55.902344 219.238281 56.46875 218.625 C 57.035156 218.011719 57.292969 217.179688 57.164062 216.351562 C 56.300781 210.761719 53.457031 205.816406 49.378906 202.273438 C 45.300781 198.726562 39.957031 196.574219 34.132812 196.574219 C 27.707031 196.574219 21.855469 199.195312 17.640625 203.414062 C 13.417969 207.632812 10.792969 213.480469 10.796875 219.910156 C 10.792969 224.769531 12.308594 229.292969 14.875 233.007812 C 17.445312 236.726562 21.0625 239.660156 25.292969 241.40625 C 26.066406 241.726562 26.945312 241.671875 27.671875 241.257812 C 28.398438 240.847656 28.894531 240.125 29.023438 239.296875 C 29.164062 238.363281 29.359375 237.4375 29.597656 236.523438 C 29.9375 235.234375 29.300781 233.898438 28.089844 233.347656 L 26.964844 235.828125 L 24.335938 235.136719 C 24.046875 236.230469 23.816406 237.347656 23.640625 238.480469 L 26.332031 238.890625 L 27.371094 236.371094 C 24.113281 235.035156 21.324219 232.765625 19.359375 229.917969 C 17.390625 227.058594 16.242188 223.636719 16.242188 219.910156 C 16.242188 214.972656 18.238281 210.515625 21.488281 207.261719 C 24.738281 204.019531 29.199219 202.019531 34.132812 202.015625 C 38.609375 202.019531 42.667969 203.660156 45.808594 206.382812 C 48.945312 209.109375 51.125 212.902344 51.785156 217.1875 L 54.476562 216.769531 L 54.695312 214.058594 C 53.898438 213.992188 53.03125 213.925781 52.070312 213.925781 C 51.585938 213.929688 51.324219 213.96875 51.28125 213.964844 L 51.324219 216.679688 L 54 216.179688 C 53.121094 211.484375 50.628906 207.351562 47.128906 204.390625 C 43.625 201.433594 39.078125 199.636719 34.132812 199.636719 C 28.550781 199.636719 23.464844 201.917969 19.804688 205.582031 C 16.144531 209.242188 13.863281 214.324219 13.863281 219.910156 C 13.863281 224.015625 15.109375 227.84375 17.226562 231.015625 C 19.351562 234.1875 22.339844 236.71875 25.847656 238.308594 L 26.964844 235.828125 L 24.335938 235.136719 L 26.964844 235.828125 "
          fill-opacity="1" fill-rule="nonzero"/>
  </g>
  <path fill="#171717"
        d="M 26.964844 260.980469 C 20.875 258.222656 16.585938 252.167969 16.585938 245.0625 C 16.585938 235.390625 24.457031 227.515625 34.132812 227.515625 C 42.703125 227.515625 49.800781 233.703125 51.324219 241.835938 C 51.578125 241.832031 51.816406 241.800781 52.070312 241.800781 C 52.898438 241.800781 53.6875 241.863281 54.476562 241.921875 C 52.945312 232.042969 44.429688 224.445312 34.132812 224.445312 C 22.769531 224.445312 13.519531 233.695312 13.519531 245.0625 C 13.519531 253.652344 18.84375 260.953125 26.332031 264.042969 C 26.488281 263.007812 26.703125 261.988281 26.964844 260.980469 "
        fill-opacity="1" fill-rule="nonzero"/>
  <g clip-path="url(#6fda0fb142)">
    <path fill="#cccccc"
          d="M 26.964844 260.980469 L 28.09375 258.5 C 25.507812 257.335938 23.304688 255.460938 21.757812 253.144531 C 20.207031 250.816406 19.308594 248.066406 19.308594 245.0625 C 19.308594 240.972656 20.964844 237.28125 23.65625 234.585938 C 26.347656 231.894531 30.042969 230.238281 34.132812 230.238281 C 37.757812 230.238281 41.042969 231.539062 43.617188 233.707031 C 46.183594 235.875 48.007812 238.902344 48.652344 242.339844 C 48.898438 243.648438 50.042969 244.582031 51.371094 244.558594 C 51.828125 244.546875 52.050781 244.515625 52.070312 244.523438 C 52.769531 244.523438 53.480469 244.574219 54.269531 244.632812 C 55.09375 244.699219 55.914062 244.375 56.476562 243.765625 C 57.035156 243.164062 57.292969 242.320312 57.164062 241.503906 C 56.300781 235.914062 53.457031 230.96875 49.378906 227.425781 C 45.300781 223.878906 39.957031 221.722656 34.132812 221.722656 C 27.707031 221.722656 21.855469 224.347656 17.640625 228.566406 C 13.417969 232.785156 10.792969 238.636719 10.796875 245.0625 C 10.792969 249.925781 12.308594 254.445312 14.875 258.160156 C 17.445312 261.882812 21.0625 264.8125 25.292969 266.554688 C 26.066406 266.875 26.945312 266.824219 27.671875 266.410156 C 28.398438 265.996094 28.894531 265.277344 29.023438 264.449219 C 29.164062 263.519531 29.359375 262.589844 29.597656 261.671875 C 29.9375 260.390625 29.304688 259.050781 28.09375 258.5 L 26.964844 260.980469 L 24.335938 260.285156 C 24.046875 261.382812 23.816406 262.503906 23.640625 263.628906 L 26.332031 264.042969 L 27.371094 261.523438 C 24.113281 260.183594 21.324219 257.921875 19.359375 255.070312 C 17.390625 252.214844 16.242188 248.792969 16.242188 245.0625 C 16.242188 240.128906 18.238281 235.667969 21.488281 232.414062 C 24.738281 229.167969 29.199219 227.167969 34.132812 227.167969 C 38.609375 227.167969 42.667969 228.808594 45.808594 231.535156 C 48.945312 234.257812 51.125 238.050781 51.785156 242.339844 L 54.476562 241.921875 L 54.679688 239.207031 C 53.894531 239.148438 53.03125 239.082031 52.070312 239.082031 C 51.585938 239.085938 51.324219 239.125 51.28125 239.117188 L 51.324219 241.835938 L 54 241.335938 C 53.121094 236.636719 50.628906 232.507812 47.128906 229.546875 C 43.625 226.589844 39.078125 224.789062 34.132812 224.792969 C 28.550781 224.789062 23.464844 227.074219 19.804688 230.738281 C 16.144531 234.398438 13.863281 239.480469 13.863281 245.0625 C 13.863281 249.167969 15.109375 252.996094 17.226562 256.167969 C 19.351562 259.339844 22.335938 261.871094 25.847656 263.460938 L 26.964844 260.980469 L 24.335938 260.285156 L 26.964844 260.980469 "
          fill-opacity="1" fill-rule="nonzero"/>
  </g>
  <path fill="#171717"
        d="M 26.964844 286.132812 C 20.875 283.375 16.585938 277.324219 16.585938 270.214844 C 16.585938 260.539062 24.457031 252.667969 34.132812 252.667969 C 42.703125 252.667969 49.800781 258.859375 51.324219 266.988281 C 51.578125 266.984375 51.816406 266.953125 52.070312 266.953125 C 52.898438 266.953125 53.6875 267.007812 54.476562 267.070312 C 52.945312 257.195312 44.429688 249.601562 34.132812 249.601562 C 22.769531 249.601562 13.519531 258.84375 13.519531 270.214844 C 13.519531 278.804688 18.84375 286.105469 26.332031 289.191406 C 26.488281 288.160156 26.703125 287.140625 26.964844 286.132812 "
        fill-opacity="1" fill-rule="nonzero"/>
  <g clip-path="url(#329d2bad0d)">
    <path fill="#cccccc"
          d="M 26.964844 286.132812 L 28.089844 283.652344 C 25.507812 282.488281 23.304688 280.617188 21.757812 278.292969 C 20.207031 275.972656 19.308594 273.222656 19.308594 270.214844 C 19.308594 266.125 20.964844 262.429688 23.65625 259.738281 C 26.347656 257.046875 30.039062 255.386719 34.132812 255.386719 C 37.757812 255.386719 41.042969 256.691406 43.617188 258.859375 C 46.183594 261.027344 48.007812 264.054688 48.652344 267.488281 C 48.898438 268.800781 50.042969 269.730469 51.371094 269.710938 C 51.816406 269.695312 52.03125 269.671875 52.070312 269.675781 C 52.773438 269.675781 53.484375 269.726562 54.273438 269.78125 C 55.09375 269.847656 55.914062 269.527344 56.476562 268.917969 C 57.035156 268.3125 57.292969 267.46875 57.164062 266.652344 C 56.300781 261.0625 53.457031 256.121094 49.378906 252.578125 C 45.300781 249.035156 39.957031 246.875 34.132812 246.878906 C 27.707031 246.878906 21.855469 249.5 17.640625 253.722656 C 13.417969 257.933594 10.792969 263.785156 10.796875 270.214844 C 10.792969 275.074219 12.308594 279.597656 14.875 283.3125 C 17.445312 287.03125 21.0625 289.960938 25.292969 291.710938 C 26.066406 292.03125 26.945312 291.972656 27.671875 291.566406 C 28.398438 291.152344 28.894531 290.429688 29.023438 289.605469 C 29.164062 288.671875 29.359375 287.738281 29.597656 286.824219 C 29.9375 285.539062 29.300781 284.199219 28.089844 283.652344 L 26.964844 286.132812 L 24.335938 285.441406 C 24.046875 286.535156 23.816406 287.652344 23.640625 288.785156 L 26.332031 289.191406 L 27.371094 286.679688 C 24.113281 285.335938 21.324219 283.074219 19.359375 280.222656 C 17.390625 277.367188 16.242188 273.945312 16.242188 270.214844 C 16.242188 265.277344 18.238281 260.820312 21.488281 257.570312 C 24.738281 254.324219 29.199219 252.324219 34.132812 252.324219 C 38.609375 252.324219 42.667969 253.964844 45.808594 256.691406 C 48.945312 259.410156 51.125 263.203125 51.785156 267.484375 L 54.476562 267.070312 L 54.679688 264.355469 C 53.890625 264.296875 53.027344 264.234375 52.070312 264.234375 C 51.597656 264.238281 51.339844 264.269531 51.28125 264.265625 L 51.324219 266.988281 L 54 266.488281 C 53.121094 261.789062 50.628906 257.660156 47.128906 254.699219 C 43.625 251.738281 39.078125 249.941406 34.132812 249.945312 C 28.550781 249.945312 23.464844 252.226562 19.804688 255.890625 C 16.144531 259.550781 13.863281 264.632812 13.863281 270.214844 C 13.863281 274.320312 15.109375 278.148438 17.226562 281.316406 C 19.351562 284.488281 22.339844 287.023438 25.847656 288.613281 L 26.964844 286.132812 L 24.335938 285.441406 L 26.964844 286.132812 "
          fill-opacity="1" fill-rule="nonzero"/>
  </g>
</svg>
